<?xml version="1.0" standalone="no"?>
<!DOCTYPE svg PUBLIC "-//W3C//DTD SVG 1.1//EN" "http://www.w3.org/Graphics/SVG/1.1/DTD/svg11.dtd" >
<svg xmlns="http://www.w3.org/2000/svg" xmlns:xlink="http://www.w3.org/1999/xlink" version="1.1">
<metadata></metadata>
<defs>
<font id="textanarrowalt-meuploadedfile" horiz-adv-x="933" >
<font-face units-per-em="2048" ascent="1565" descent="-483" />
<missing-glyph horiz-adv-x="405" />
<glyph horiz-adv-x="0" />
<glyph horiz-adv-x="682" />
<glyph horiz-adv-x="0" />
<glyph horiz-adv-x="0" />
<glyph unicode="&#xd;" horiz-adv-x="681" />
<glyph unicode=" "  horiz-adv-x="405" />
<glyph unicode="&#x09;" horiz-adv-x="405" />
<glyph unicode="&#xa0;" horiz-adv-x="405" />
<glyph unicode="!" horiz-adv-x="407" d="M109 84q0 51 37.5 89t86.5 38q43 0 70 -28.5t27 -71.5q0 -51 -38 -89t-89 -38q-41 0 -67.5 28.5t-26.5 71.5zM197 358l75 871h205l-164 -871h-116z" />
<glyph unicode="&#x22;" horiz-adv-x="614" d="M227 973l95 428h153l-145 -428h-103zM506 973l94 428h154l-146 -428h-102z" />
<glyph unicode="#" horiz-adv-x="1169" d="M102 322l37 106h217l113 336h-211l37 104h211l110 326h109l-111 -326h289l109 326h112l-110 -326h221l-41 -104h-217l-113 -336h213l-35 -106h-213l-108 -322h-109l107 322h-289l-106 -322h-111l109 322h-220zM465 428h289l112 336h-288z" />
<glyph unicode="$" horiz-adv-x="956" d="M86 121l111 127q12 -12 34.5 -32.5t100.5 -53.5t166 -33q133 0 199.5 61.5t66.5 161.5q0 66 -51 110t-189 91q-172 59 -247.5 131t-75.5 186q0 174 122.5 279.5t335.5 105.5q76 0 140.5 -12t103.5 -30.5t66.5 -37t38.5 -30.5l12 -12l-109 -140q-10 12 -29.5 29.5 t-91 46.5t-153.5 29q-115 0 -184.5 -53.5t-69.5 -147.5q0 -59 51 -99t189 -85q178 -57 251.5 -134t73.5 -194q0 -180 -124 -297t-345 -117q-80 0 -149.5 15.5t-111.5 37t-73.5 44t-46.5 38.5zM393 -219l238 1685h119l-238 -1685h-119z" />
<glyph unicode="%" horiz-adv-x="1228" d="M78 0l1061 1229h170l-1063 -1229h-168zM203 899q0 143 82 249.5t213 106.5q98 0 152.5 -73.5t54.5 -184.5q0 -141 -83 -249.5t-210 -108.5q-100 0 -154.5 74.5t-54.5 185.5zM338 905q0 -63 23.5 -102t66.5 -39q63 0 101 66.5t38 162.5q0 140 -86 140q-66 0 -104.5 -66 t-38.5 -162zM698 244q0 143 83 249.5t212 106.5q98 0 153.5 -73.5t55.5 -186.5q0 -141 -84 -248.5t-211 -107.5q-98 0 -153.5 75.5t-55.5 184.5zM836 250q0 -141 88 -141q63 0 102 66.5t39 160.5q0 141 -88 141q-63 0 -102 -65.5t-39 -161.5z" />
<glyph unicode="&#x26;" horiz-adv-x="1122" d="M127 276q0 135 73.5 220.5t202.5 154.5l-26 35q-68 88 -68 215q0 150 102.5 252t258.5 102q129 0 202.5 -70.5t73.5 -183.5q0 -139 -79 -224t-220 -161l201 -254q57 99 96 226l154 -39q-59 -178 -154 -307l189 -242h-242l-78 102q-150 -123 -326 -122q-174 0 -267 82.5 t-93 213.5zM313 297q0 -78 53.5 -125t137.5 -47q121 0 223 92l-233 315q-88 -51 -134.5 -105t-46.5 -130zM481 918q0 -78 62 -164l16 -23q109 57 162 109.5t53 136.5q0 63 -33.5 100t-91.5 37q-72 0 -120 -54t-48 -142z" />
<glyph unicode="'" horiz-adv-x="335" d="M227 973l95 428h153l-145 -428h-103z" />
<glyph unicode="(" horiz-adv-x="497" d="M150 588q43 305 159.5 521t253.5 347l90 -106q-259 -275 -329 -762q-70 -489 116 -760l-121 -109q-246 324 -169 869z" />
<glyph unicode=")" horiz-adv-x="497" d="M8 -172q141 147 243.5 385.5t102.5 570.5q0 371 -133 566l121 106q244 -326 168 -868.5t-412 -868.5z" />
<glyph unicode="*" horiz-adv-x="718" d="M240 1147l63 135l191 -133l2 270h131l-84 -272l233 135l27 -135l-250 -43l149 -195l-122 -80l-72 242l-141 -242l-95 80l199 195z" />
<glyph unicode="+" horiz-adv-x="966" d="M145 532l21 140h342l53 383h141l-53 -383h344l-20 -140h-344l-51 -366h-142l51 366h-342z" />
<glyph unicode="," horiz-adv-x="389" d="M6 -158q135 33 162 140q-31 6 -50.5 31.5t-19.5 58.5q0 51 36 86t85 35q43 0 69.5 -31t20.5 -76l-2 -16q-16 -125 -93 -212t-191 -110z" />
<glyph unicode="-" horiz-adv-x="733" d="M160 399l20 140h525l-21 -140h-524z" />
<glyph unicode="." horiz-adv-x="387" d="M98 74q0 49 36 84t85 35q39 0 64.5 -27t25.5 -68q0 -49 -36 -83.5t-85 -34.5q-39 0 -64.5 26.5t-25.5 67.5z" />
<glyph unicode="/" horiz-adv-x="1091" d="M6 -229l1100 1833h172l-1096 -1831z" />
<glyph unicode="0" horiz-adv-x="1134" d="M158 498q0 201 69.5 372.5t205.5 278t310 106.5q195 0 300.5 -147t105.5 -379q0 -309 -163 -533.5t-423 -224.5q-195 0 -300 148.5t-105 378.5zM332 512q0 -168 65.5 -273.5t188.5 -105.5q174 0 280.5 171t106.5 411q0 170 -64.5 275.5t-187.5 105.5q-172 0 -280.5 -173 t-108.5 -411z" />
<glyph unicode="1" horiz-adv-x="575" d="M180 1075l23 154h418l-175 -1229h-167l151 1075h-250z" />
<glyph unicode="2" d="M84 0l16 117l527 516q82 80 112.5 133t30.5 133q0 84 -50 139.5t-140 55.5q-41 0 -83 -12.5t-77 -34t-59.5 -39t-47 -38t-24.5 -20.5l-72 135q18 18 51 47t136.5 76t207.5 47q168 0 257 -89t89 -232q0 -100 -33.5 -182t-133.5 -181l-424 -417h510l-23 -154h-770z" />
<glyph unicode="3" horiz-adv-x="929" d="M86 143l113 125q4 -6 9 -15t27.5 -32.5t49 -42t69.5 -33t92 -14.5q125 0 202 76t77 192q0 190 -217 191h-129l18 131l351 354h-502l20 154h725l-18 -135l-365 -365q143 -8 218 -88t75 -219q0 -190 -127 -319.5t-344 -129.5q-72 0 -133 17.5t-99 43t-65 50.5t-37 43z" />
<glyph unicode="4" horiz-adv-x="1046" d="M84 285l18 125l734 819h137l-111 -791h197l-23 -153h-196l-41 -285h-170l41 285h-586zM326 438h366l70 502l-402 -465l-34 -31v-6z" />
<glyph unicode="5" horiz-adv-x="911" d="M84 143l113 123l10 -15t28.5 -31.5t49 -41t69.5 -33t92 -14.5q125 0 200 76t75 201q0 90 -59.5 142t-176.5 52q-70 0 -132 -13.5t-88.5 -23.5t-31.5 -14l-22 22l106 656h637l-20 -154h-485l-56 -334q61 12 133 13q188 0 280.5 -86t92.5 -234q0 -201 -125 -331t-346 -130 q-72 0 -133.5 17.5t-99 43t-64.5 50.5t-37 43z" />
<glyph unicode="6" horiz-adv-x="987" d="M158 457q0 371 156.5 583.5t406.5 212.5q68 0 124 -17t88 -42t55.5 -49.5t31.5 -42.5l8 -17l-115 -127l-18 25q-18 27 -39.5 48.5t-65 42t-92.5 20.5q-279 0 -344 -455q119 129 291 129q150 0 240 -94t90 -238q0 -186 -134 -321t-323 -135q-164 0 -262 115.5t-98 361.5z M328 377q8 -125 64.5 -183.5t146.5 -58.5q109 0 185.5 84t76.5 201q0 88 -50.5 142t-136.5 54q-102 0 -179 -65.5t-107 -173.5z" />
<glyph unicode="7" horiz-adv-x="833" d="M123 0l629 1075h-549l20 154h758l-16 -117l-641 -1112h-201z" />
<glyph unicode="8" horiz-adv-x="976" d="M129 299q0 233 211 346q-102 74 -102 223q0 164 117.5 275.5t312.5 111.5q160 0 244.5 -82.5t84.5 -216.5q0 -199 -176 -313q125 -80 125 -250q0 -174 -126 -298t-333 -124q-172 0 -265 93.5t-93 234.5zM305 319q0 -84 55.5 -138t149.5 -54q113 0 186.5 73t73.5 177 q0 86 -52 139t-147 53q-117 0 -191.5 -72.5t-74.5 -177.5zM410 879q0 -74 47 -122t135 -48q106 0 167.5 64.5t61.5 158.5q0 74 -44 121t-130 47q-109 0 -173 -65.5t-64 -155.5z" />
<glyph unicode="9" horiz-adv-x="980" d="M143 139l117 127q82 -135 213 -135t218 112.5t110 348.5q-117 -129 -289 -129q-150 0 -240 95t-90 239q0 186 134.5 321t322.5 135q162 0 261 -116.5t99 -362.5q0 -367 -150.5 -585t-395.5 -218q-68 0 -125.5 17.5t-90 42t-55 49t-30.5 43.5zM356 811q0 -86 50.5 -141.5 t138.5 -55.5q100 0 174 63.5t106 172.5q-20 246 -204 246q-111 0 -188 -84t-77 -201z" />
<glyph unicode=":" horiz-adv-x="413" d="M133 104.5q6 45.5 41 77t78 31.5q45 0 70.5 -31.5t19.5 -77t-40 -75t-79 -29.5q-43 0 -69.5 29.5t-20.5 75zM225 766q6 45 42 76.5t79 31.5t68.5 -31.5t19.5 -76.5t-40 -74.5t-79 -29.5q-43 0 -69.5 29.5t-20.5 74.5z" />
<glyph unicode=";" horiz-adv-x="442" d="M39 -158q135 33 158 140q-35 8 -53.5 36.5t-14.5 67.5q6 45 42 76t79 31q45 0 69.5 -31t18.5 -76l-2 -16q-16 -125 -92 -212t-193 -110zM225 766q6 45 42 76.5t79 31.5t68.5 -31.5t19.5 -76.5t-40 -74.5t-79 -29.5q-43 0 -69.5 29.5t-20.5 74.5z" />
<glyph unicode="&#x3c;" horiz-adv-x="696" d="M145 567l13 90l565 390l-25 -177l-374 -258l301 -258l-25 -176z" />
<glyph unicode="=" horiz-adv-x="870" d="M158 334l20 139h649l-20 -139h-649zM213 725l18 139h650l-19 -139h-649z" />
<glyph unicode="&#x3e;" horiz-adv-x="696" d="M145 178l25 176l375 258l-301 258l24 177l455 -390l-12 -90z" />
<glyph unicode="?" horiz-adv-x="794" d="M215 1145q14 12 41 30.5t111 49t170 30.5q152 0 239.5 -74.5t87.5 -205.5q0 -94 -34.5 -167t-87 -119t-105.5 -86t-96 -89t-56 -106l-10 -52h-125l10 76q8 66 45 122t82 98t89.5 82t74 91.5t29.5 108.5q0 74 -47 117t-127 43q-59 0 -117.5 -22.5t-89.5 -43.5l-29 -22z M270 82q0 51 38 88t87 37q41 0 67.5 -27.5t26.5 -68.5q0 -51 -37.5 -89t-89.5 -38q-39 0 -65.5 28.5t-26.5 69.5z" />
<glyph unicode="@" horiz-adv-x="1880" d="M137 444q0 281 135.5 530t375 400.5t523.5 151.5q324 0 528 -222.5t204 -547.5q0 -272 -140.5 -462t-339.5 -190q-117 0 -169 58.5t-60 140.5h-18q-23 -33 -57 -67.5t-112.5 -76.5t-162.5 -42q-131 0 -208 86t-77 233q0 246 155.5 414t352.5 168q119 0 174 -54.5 t66 -119.5l57 153h129l-125 -510q-20 -68 -20 -116q0 -63 30.5 -101.5t87.5 -38.5q117 0 208 142.5t91 365.5q0 125 -36.5 242t-109.5 214t-192.5 155.5t-271.5 58.5q-242 0 -449.5 -133t-327.5 -351t-120 -462q0 -311 186.5 -525t466.5 -214q102 0 205 28.5t154 59.5l49 28 l35 -104q-20 -14 -57 -36t-157 -56.5t-245 -34.5q-227 0 -403.5 116.5t-265.5 305t-89 413.5zM741 471q0 -98 44 -152.5t122 -54.5q131 0 231.5 122t100.5 280q0 94 -49 149t-129 55q-121 0 -220.5 -115.5t-99.5 -283.5z" />
<glyph unicode="A" horiz-adv-x="1116" d="M6 0l643 1229h162l299 -1229h-176l-62 264h-557l-133 -264h-176zM391 414h449l-138 610z" />
<glyph unicode="B" horiz-adv-x="1128" d="M143 0l172 1229h488q166 0 256 -73t90 -210q0 -115 -55.5 -195.5t-149.5 -119.5v-6q158 -54 158 -238q0 -186 -123 -286.5t-330 -100.5h-506zM334 154h340q109 0 180.5 58t71.5 167q0 74 -50.5 119t-130.5 49h-356zM410 696h315q106 0 175 61t69 161q0 157 -189 157h-2 h-315z" />
<glyph unicode="C" horiz-adv-x="1046" d="M147 518q0 305 190.5 521t471.5 216q72 0 134.5 -16t100 -38.5t66.5 -45t41 -39.5l10 -16l-114 -131q-4 6 -10.5 14t-31 29.5t-52 39t-71.5 31t-94 13.5q-190 0 -327 -165t-137 -390q0 -176 90 -293t239 -117q76 0 150 32t110 62l35 33l78 -131q-6 -6 -17.5 -16.5 t-49 -38t-80.5 -48t-111 -37t-139 -16.5q-221 0 -351.5 155t-130.5 392z" />
<glyph unicode="D" horiz-adv-x="1179" d="M143 0l172 1229h392q229 0 361 -140t132 -378q0 -315 -186.5 -513t-478.5 -198h-392zM334 154h213q203 0 341 146t138 388q0 180 -96 283.5t-254 103.5h-213z" />
<glyph unicode="E" horiz-adv-x="1013" d="M143 0l172 1229h797l-20 -154h-629l-53 -379h534l-20 -149h-535l-55 -393h629l-23 -154h-797z" />
<glyph unicode="F" horiz-adv-x="995" d="M143 0l172 1229h799l-20 -154h-631l-53 -379h534l-20 -149h-535l-78 -547h-168z" />
<glyph unicode="G" horiz-adv-x="1191" d="M150 514q0 309 187 525t474 216q78 0 144.5 -16t107.5 -39.5t69.5 -47.5t41.5 -40l12 -16l-115 -129q-10 14 -30.5 35.5t-94.5 57.5t-160 36q-197 0 -328.5 -166t-131.5 -398q0 -176 85 -288.5t234 -112.5q152 0 259.5 106.5t129.5 278.5l2 16h-358l20 150h535l-14 -102 q-39 -279 -199 -444t-397 -165q-221 0 -347 152.5t-126 390.5z" />
<glyph unicode="H" horiz-adv-x="1210" d="M143 0l172 1229h168l-75 -547h587l76 547h168l-172 -1229h-168l76 532h-588l-76 -532h-168z" />
<glyph unicode="I" horiz-adv-x="454" d="M143 0l172 1229h168l-172 -1229h-168z" />
<glyph unicode="J" horiz-adv-x="821" d="M39 76l100 129q70 -70 178 -70q223 0 265 299l112 795h166l-117 -830q-29 -205 -139 -316.5t-299 -111.5q-162 1 -266 105z" />
<glyph unicode="K" horiz-adv-x="1083" d="M143 0l172 1229h168l-88 -635l633 635h197l-2 -25l-492 -487l334 -692l-4 -25h-184l-279 584l-238 -238l-49 -346h-168z" />
<glyph unicode="L" horiz-adv-x="919" d="M143 0l172 1229h168l-149 -1075h561l-23 -154h-729z" />
<glyph unicode="M" horiz-adv-x="1353" d="M143 0l172 1229h121l332 -590l494 590h120l-172 -1229h-166l127 897l-407 -479h-53l-275 473l-125 -891h-168z" />
<glyph unicode="N" horiz-adv-x="1243" d="M143 0l172 1227v2h123l539 -912l127 912h168l-172 -1229h-121l-539 913l-129 -913h-168z" />
<glyph unicode="O" horiz-adv-x="1261" d="M150 518q0 305 188 521t467 216q221 0 350 -153.5t129 -392.5q0 -305 -188 -521.5t-471 -216.5q-219 0 -347 155t-128 392zM326 537q0 -176 87 -290t234 -114q197 0 330 164t133 391q0 178 -88 293t-240 115q-193 0 -324.5 -165t-131.5 -394z" />
<glyph unicode="P" horiz-adv-x="1081" d="M143 0l172 1229h457q178 0 277.5 -91t99.5 -255q0 -227 -138.5 -357.5t-363.5 -130.5h-280l-56 -395h-168zM389 549h281q141 0 223 76.5t82 232.5q0 106 -61.5 161.5t-170.5 55.5h-280z" />
<glyph unicode="Q" horiz-adv-x="1261" d="M150 518q0 305 188 521t467 216q221 0 350 -153.5t129 -392.5q0 -215 -101.5 -392.5t-271.5 -271.5l121 -287h-190l-92 228q-72 -15 -125 -15q-219 0 -347 155t-128 392zM326 537q0 -176 87 -290t234 -114q197 0 330 164t133 391q0 178 -88 293t-240 115 q-193 0 -324.5 -165t-131.5 -394z" />
<glyph unicode="R" horiz-adv-x="1120" d="M143 0l172 1229h455q178 0 278.5 -91t100.5 -255q0 -166 -80 -280t-219 -165l-2 -10l213 -395l-4 -33h-180l-220 408h-288l-58 -408h-168zM389 559h293q131 0 211 78t80 223q0 104 -61.5 159.5t-168.5 55.5h-280z" />
<glyph unicode="S" horiz-adv-x="960" d="M86 121l111 127q12 -12 34.5 -32.5t100.5 -53.5t166 -33q133 0 199.5 61.5t66.5 161.5q0 66 -51 110t-189 91q-172 59 -247.5 131t-75.5 186q0 174 122.5 279.5t335.5 105.5q76 0 140.5 -12t103.5 -30.5t66.5 -37t38.5 -30.5l12 -12l-109 -140q-10 12 -29.5 29.5 t-91 46.5t-153.5 29q-115 0 -184.5 -53.5t-69.5 -147.5q0 -59 51 -99t189 -85q178 -57 251.5 -134t73.5 -194q0 -180 -124 -297t-345 -117q-80 0 -149.5 15.5t-111.5 37t-73.5 44t-46.5 38.5z" />
<glyph unicode="T" horiz-adv-x="976" d="M199 1075l22 154h885l-23 -154h-360l-152 -1075h-168l152 1075h-356z" />
<glyph unicode="U" horiz-adv-x="1181" d="M201 516l100 713h168l-100 -713q-7 -50 -7 -94q0 -110 44 -184q62 -106 202 -105q143 0 233.5 105.5t114.5 277.5l101 713h168l-101 -713q-35 -246 -178 -395.5t-360 -149.5q-212 1 -316 151q-77 112 -78 277q0 55 9 117z" />
<glyph unicode="V" horiz-adv-x="1116" d="M178 1229h176l232 -1020l520 1020h176l-643 -1229h-162z" />
<glyph unicode="W" horiz-adv-x="1509" d="M197 1229h176l121 -950l356 950h151l93 -950l387 950h176l-543 -1229h-131l-96 954l-361 -954h-131z" />
<glyph unicode="X" horiz-adv-x="1013" d="M23 0l446 631l-262 598h203l174 -424l26 -82l49 82l291 424h201l-432 -598l274 -631h-205l-178 442l-30 88l-56 -88l-299 -442h-202z" />
<glyph unicode="Y" horiz-adv-x="993" d="M176 1229h195l188 -520l25 -86h4l49 86l332 520h192l-514 -752l-65 -477h-170l65 477z" />
<glyph unicode="Z" horiz-adv-x="989" d="M55 0l17 117l788 958h-631l23 154h848l-17 -119l-774 -956h629l-20 -154h-863z" />
<glyph unicode="[" horiz-adv-x="616" d="M76 -266l239 1700h473l-20 -140h-311l-199 -1421h311l-20 -139h-473z" />
<glyph unicode="\" horiz-adv-x="690" d="M289 1634h168l137 -1896h-168z" />
<glyph unicode="]" horiz-adv-x="616" d="M-6 -266l20 139h310l198 1421h-309l20 140h474l-240 -1700h-473z" />
<glyph unicode="^" horiz-adv-x="808" d="M227 1018l326 401h100l215 -401h-143l-141 278l-219 -278h-138z" />
<glyph unicode="_" horiz-adv-x="1017" d="M66 -221l20 139h825l-20 -139h-825z" />
<glyph unicode="`" horiz-adv-x="528" d="M279 1290l200 31l47 -303h-118z" />
<glyph unicode="a" horiz-adv-x="862" d="M86 219q0 139 107.5 227.5t295.5 88.5q90 0 177 -29l4 26q4 28 4 52q0 153 -180 153q-53 0 -109.5 -16t-85.5 -33l-29 -18l-43 133q125 78 308 78q298 -1 297 -271q0 -37 -5 -80l-73 -530h-115l-4 117h-4q-100 -137 -281 -137q-125 0 -194.5 67.5t-69.5 171.5zM252 240 q0 -59 38 -96.5t107 -37.5q90 0 160 64t82 152l8 63q-59 37 -158 37q-117 0 -177 -49t-60 -133z" />
<glyph unicode="b" horiz-adv-x="974" d="M115 0l174 1239h168l-70 -500h6q2 6 9.5 15.5t31 34t52 43t77.5 34t107 15.5q135 0 219 -104.5t84 -272.5q0 -227 -128 -375.5t-306 -148.5q-59 0 -108.5 16t-76 40.5t-44 49.5t-23.5 41l-6 16h-7l-41 -143h-118zM328 375q0 -119 54 -187.5t142 -68.5q115 0 197 106.5 t82 259.5q0 115 -52.5 185.5t-138.5 70.5q-117 0 -200.5 -102t-83.5 -264z" />
<glyph unicode="c" horiz-adv-x="761" d="M121 356q0 225 133 375t334 150q78 0 135 -18.5t76 -39.5l18 -18l-65 -125q-61 61 -172 61q-121 0 -205 -101t-84 -269q0 -119 55 -185.5t146 -66.5q49 0 96 15.5t71 29.5l23 16l29 -123q-8 -8 -25.5 -21t-82 -34.5t-142.5 -21.5q-158 0 -249 103t-91 273z" />
<glyph unicode="d" horiz-adv-x="976" d="M121 356q0 225 128 375t304 150q86 0 145.5 -33t75.5 -66l17 -30h6l69 487h168l-174 -1239h-112l-7 133h-8l-11 -16.5t-35 -37t-59.5 -47t-83.5 -36.5t-112 -16q-139 0 -225 103t-86 273zM293 377q0 -115 53 -186.5t139 -71.5q117 0 201 102t84 264q0 119 -54 187.5 t-143 68.5q-115 0 -197.5 -105.5t-82.5 -258.5z" />
<glyph unicode="e" horiz-adv-x="854" d="M121 354q0 221 126 374t318 153q168 0 244 -120q56 -89 56 -214q0 -45 -7 -94l-6 -43h-563q-3 -31 -3 -59q0 -101 45 -159q58 -75 169 -75q59 0 115.5 19.5t80.5 39.5l27 19l43 -117q-10 -10 -31.5 -27.5t-98.5 -45.5t-167 -28q-164 0 -256 103.5t-92 273.5zM311 532h391 v18q0 88 -36 138q-40 54 -121 55q-170 0 -234 -211z" />
<glyph unicode="f" horiz-adv-x="591" d="M88 727l18 133h195l12 92q18 141 103.5 222t216.5 81q49 0 92 -10t61 -20l17 -11l-70 -131q-45 27 -110 27q-55 0 -93 -40t-49 -112l-14 -98h276l-18 -133h-276l-103 -727h-166l103 727h-195z" />
<glyph unicode="g" horiz-adv-x="876" d="M41 -170q0 152 166 229q-109 45 -109 156q0 131 135 199q-24 51 -24 118v5q0 141 95 240.5t257 99.5q70 0 119 -17h266l-18 -131h-107v-4q16 -23 17 -96q0 -141 -97.5 -242.5t-263.5 -101.5q-100 0 -172 47q-59 -29 -59 -88q0 -25 16.5 -42.5t72.5 -31.5t157 -18 q184 -8 259.5 -62.5t75.5 -155.5q0 -133 -122.5 -227t-323.5 -94q-174 0 -257 58.5t-83 158.5zM203 -145q0 -51 49 -85t147 -34q127 0 195 47t68 117q-1 108 -189 114q-84 4 -123 9q-147 -61 -147 -168zM354 555q0 -66 37 -106.5t105 -40.5q88 0 141 57t53 139 q0 63 -37.5 106.5t-107.5 43.5q-84 0 -137.5 -59.5t-53.5 -139.5z" />
<glyph unicode="h" horiz-adv-x="954" d="M117 0l174 1239h168l-66 -461h6q102 102 250 103q149 1 221 -107q54 -80 54 -200q0 -40 -6 -85l-70 -489h-168l65 469q6 37 6 69q-1 74 -29 126q-40 76 -132 75.5t-153.5 -70t-78.5 -151.5l-73 -518h-168z" />
<glyph unicode="i" horiz-adv-x="405" d="M119 0l121 860h168l-121 -860h-168zM256 1128q0 49 37 84t86 35q39 0 64.5 -26.5t25.5 -67.5q0 -49 -36 -83t-85 -34q-41 0 -66.5 27t-25.5 65z" />
<glyph unicode="j" horiz-adv-x="405" d="M-35 -319l21 139h20q43 0 69.5 28.5t33.5 75.5l131 936h168l-134 -944q-16 -111 -78.5 -173t-170.5 -62h-60zM256 1128q0 49 37 84t84 35q39 0 65.5 -26.5t26.5 -67.5q0 -49 -37 -83t-86 -34q-39 0 -64.5 25.5t-25.5 66.5z" />
<glyph unicode="k" horiz-adv-x="841" d="M117 0l174 1239h166l-107 -756l381 377h213l-389 -371l268 -489h-202l-205 375l-92 -86l-41 -289h-166z" />
<glyph unicode="l" horiz-adv-x="407" d="M121 0l174 1239h166l-174 -1239h-166z" />
<glyph unicode="m" horiz-adv-x="1505" d="M117 0l121 860h112l-2 -125h12q121 145 279 146q197 0 258 -160h6q123 160 297 160q152 -1 222 -107q52 -79 53 -196q0 -42 -7 -89l-69 -489h-166l65 471q5 34 5 65q-1 76 -29 128q-40 74 -131.5 74.5t-151 -66t-76.5 -152.5l-73 -520h-166l69 500q4 27 4 51 q1 71 -31 121q-42 66 -136 67q-92 0 -151.5 -68.5t-74.5 -150.5l-73 -520h-166z" />
<glyph unicode="n" horiz-adv-x="956" d="M117 0l121 860h112l-2 -125h12q117 145 287 146q153 1 225 -107q54 -81 53 -201q0 -40 -5 -84l-70 -489h-168l66 471q4 33 4 63q0 76 -29 130q-41 74 -133 74.5t-154.5 -68t-79.5 -150.5l-73 -520h-166z" />
<glyph unicode="o" d="M119 358q0 225 139 374t330 149q152 0 249 -107.5t97 -281.5q0 -225 -141.5 -368.5t-331.5 -143.5q-152 0 -247 103t-95 275zM285 373q0 -119 55 -188.5t141 -69.5q117 0 201 102t84 266q0 119 -55.5 190.5t-141.5 71.5q-115 0 -199.5 -105t-84.5 -267z" />
<glyph unicode="p" horiz-adv-x="974" d="M72 -319l166 1179h112l4 -125h13q4 6 11 15.5t34.5 35t59.5 45t84 35t110 15.5q137 0 223 -103.5t86 -273.5q0 -225 -129 -374.5t-301 -149.5q-55 0 -101.5 13t-71 32.5t-41 38t-20.5 30.5l-6 15h-8l-59 -428h-166zM330 373q0 -117 53 -185.5t141 -68.5q115 0 197 105.5 t82 260.5q0 113 -52.5 184.5t-138.5 71.5q-117 0 -199.5 -102t-82.5 -266z" />
<glyph unicode="q" horiz-adv-x="974" d="M121 356q0 229 128 377t310 148q59 0 107.5 -16.5t75 -41t44 -49t21.5 -41.5l6 -16h8l43 143h117l-166 -1179h-168l62 440h-7q-4 -6 -10 -15.5t-29.5 -34t-52 -43t-79 -33.5t-105.5 -15q-135 0 -220 104t-85 272zM293 375q0 -115 52 -185.5t140 -70.5q117 0 201 102 t84 264q0 119 -55.5 187.5t-143.5 68.5q-115 0 -196.5 -106.5t-81.5 -259.5z" />
<glyph unicode="r" horiz-adv-x="548" d="M117 0l121 860h112l-4 -145h10q43 70 108.5 108.5t135.5 38.5h45l-18 -137h-43q-78 0 -146.5 -64.5t-85.5 -158.5l-69 -502h-166z" />
<glyph unicode="s" horiz-adv-x="776" d="M78 84l84 115q10 -10 30.5 -23.5t87 -37t134.5 -23.5q86 0 128 34.5t42 90.5q0 43 -44 71.5t-107.5 47t-127 43t-107.5 74.5t-44 126q0 119 88 199t250 80q92 0 170.5 -18.5t111.5 -35.5l33 -18l-82 -135q-89 71 -234 71h-4q-168 0 -168 -118q0 -41 44.5 -66.5t108 -43 t127 -40t107.5 -75t44 -130.5q0 -125 -87.5 -208.5t-267.5 -83.5q-102 0 -181 25.5t-108 51.5z" />
<glyph unicode="t" horiz-adv-x="618" d="M129 727l18 133h144l37 262h168l-37 -262h219l-19 -133h-219l-67 -475q-3 -19 -3 -35q0 -94 89 -94q25 0 52.5 9t41.5 20l16 8l37 -119q-92 -61 -192 -61q-214 0 -214 204q0 31 5 66l67 477h-143z" />
<glyph unicode="u" horiz-adv-x="952" d="M156 350l71 510h168l-71 -500q-5 -36 -5 -66q0 -173 158 -173h2q94 0 156.5 59.5t77.5 138.5l78 541h165l-120 -860h-109l-12 121h-6q-115 -141 -287 -141q-152 0 -222 97q-51 71 -51 185q0 41 7 88z" />
<glyph unicode="v" horiz-adv-x="856" d="M133 860h186l125 -604q8 -39 7 -59h8q2 12 22 59l299 604h183l-478 -860h-116z" />
<glyph unicode="w" horiz-adv-x="1228" d="M143 860h174l78 -604q6 -27 2 -59h17l20 61l234 602h141l61 -604q4 -41 2 -59h17q4 25 18 59l254 604h166l-409 -860h-144l-63 592v65h-11q-2 -14 -22 -65l-225 -592h-142z" />
<glyph unicode="x" horiz-adv-x="825" d="M25 0l350 446l-213 414h190l137 -309h7l223 309h190l-334 -414l230 -446h-191l-149 342h-6l-246 -342h-188z" />
<glyph unicode="y" horiz-adv-x="851" d="M137 860h185l129 -604q8 -41 4 -59h10q8 31 20 59l297 604h172l-622 -1179h-174l200 368z" />
<glyph unicode="z" horiz-adv-x="792" d="M57 0l11 76l546 647h-446l20 137h660l-12 -80l-523 -643h432l-18 -137h-670z" />
<glyph unicode="{" horiz-adv-x="540" d="M98 518l21 139h49q121 0 147 189l50 346q35 252 297 272l4 -141q-61 -10 -90 -40t-39 -107l-48 -345q-29 -195 -151 -237l-2 -19q111 -41 84 -231l-49 -350q-10 -74 10 -104.5t78 -41.5l-45 -139q-254 18 -219 271l49 346q29 193 -97 192h-49z" />
<glyph unicode="|" horiz-adv-x="380" d="M76 -262l235 1669h156l-236 -1669h-155z" />
<glyph unicode="}" horiz-adv-x="540" d="M39 -152q61 10 90 40t39 106l49 350q27 190 152 231l2 19q-115 45 -86 237l49 345q10 78 -9.5 107.5t-78.5 39.5l47 141q252 -20 217 -272l-49 -346q-27 -189 98 -189h49l-20 -139h-49q-121 0 -150 -192l-49 -346q-35 -252 -295 -271z" />
<glyph unicode="~" horiz-adv-x="903" d="M199 635q92 80 215 80q53 0 129 -33t137 -33q39 0 79 13.5t60 25.5l21 12l41 -102q-90 -80 -217 -80q-53 0 -129 33t-138 33q-37 0 -76.5 -12.5t-62.5 -24.5l-20 -12z" />
<glyph unicode="&#xa1;" horiz-adv-x="387" d="M39 -362l168 870h117l-80 -870h-205zM193 754q0 53 36.5 91t87.5 38q41 0 68 -29t27 -72q0 -51 -38 -89t-87 -38q-41 0 -67.5 29t-26.5 70z" />
<glyph unicode="&#xa2;" horiz-adv-x="796" d="M154 541q0 219 132 366.5t326 153.5l45 168h103l-49 -176q45 -8 81.5 -25.5t51.5 -30.5l16 -12l-65 -125q-45 41 -119 55l-160 -616h19q49 0 96 15.5t69 29.5l25 16l25 -124q-90 -76 -248 -76h-23l-41 -160h-102l45 176q-106 35 -166.5 131t-60.5 234zM326 555 q0 -162 96 -225l153 588q-106 -23 -177.5 -121.5t-71.5 -241.5z" />
<glyph unicode="&#xa3;" d="M119 0l22 154h2l-2 2q6 2 15.5 7t34 24.5t43 44t34 67.5t15.5 94q0 39 -13 142h-114l18 129h82q-4 53 -4 102q0 201 129 339t344 138q59 0 112.5 -13t85 -31.5t55 -37t34.5 -31.5l8 -14l-119 -131q-6 10 -20.5 26.5t-64.5 43t-111 26.5q-129 0 -198 -90t-69 -237 q0 -41 4 -90h377l-18 -129h-344q6 -59 6 -119q0 -143 -98 -262h495l-22 -154h-719z" />
<glyph unicode="&#xa5;" horiz-adv-x="1093" d="M182 178l19 127h780l-18 -127h-781zM223 467l19 129h780l-18 -129h-781zM227 1229h195l188 -520l25 -86h4l49 86l332 520h192l-514 -752l-65 -477h-170l65 477z" />
<glyph unicode="&#xa6;" horiz-adv-x="399" d="M78 -313l98 702h154l-99 -702h-153zM217 676l98 702h154l-98 -702h-154z" />
<glyph unicode="&#xa7;" horiz-adv-x="970" d="M80 92l104 131q12 -10 38 -26.5t107 -44t169 -27.5q240 0 239 131q0 49 -44 76.5t-175 77.5q-131 43 -202.5 97t-71.5 134q0 100 90 158q-98 61 -98 166q0 127 112.5 208.5t325.5 81.5q115 0 205 -23.5t120 -47.5l33 -25l-104 -133q-10 10 -29.5 23.5t-91.5 37t-154 23.5 q-223 0 -223 -129q0 -49 42 -79t138 -60q313 -102 314 -248q0 -102 -90 -166q98 -72 98 -168q0 -119 -116 -203t-335 -84q-125 0 -225 30t-137 58zM412 664q0 -66 182 -127q82 -29 117 -43q39 45 39 81q0 74 -213 140l-78 24q-47 -20 -47 -75z" />
<glyph unicode="&#xa8;" horiz-adv-x="864" d="M383 1448q0 45 35 80t76 35q35 0 60.5 -27t25.5 -66q0 -43 -36 -78.5t-79 -35.5q-33 0 -57.5 27.5t-24.5 64.5zM700 1448q0 45 34 80t77 35q35 0 60.5 -27t25.5 -66q0 -43 -36 -78.5t-79 -35.5q-35 0 -58.5 27.5t-23.5 64.5z" />
<glyph unicode="&#xa9;" horiz-adv-x="1275" d="M156 522q0 295 186 506t471 211q225 0 352 -151.5t127 -382.5q0 -295 -184 -506t-471 -211q-225 0 -353 151.5t-128 382.5zM246 530q0 -197 106.5 -326.5t296.5 -129.5q242 0 398.5 183t156.5 437q0 201 -106.5 330t-296.5 129q-244 0 -399.5 -182.5t-155.5 -440.5z M436 565q0 158 96.5 268.5t249.5 110.5q59 0 104.5 -19.5t59.5 -37.5l17 -19l-70 -90q-39 57 -121 58q-94 0 -155.5 -75t-61.5 -181q0 -80 42 -132.5t114 -52.5q37 0 70.5 13.5t49.5 27.5l17 15l45 -89q-8 -8 -22.5 -20t-67.5 -33.5t-113 -21.5q-121 0 -187.5 77.5 t-66.5 200.5z" />
<glyph unicode="&#xaa;" horiz-adv-x="741" d="M170 735q0 109 80 174.5t209 65.5q131 0 172 -60l4 27q16 104 -10.5 153.5t-118.5 49.5q-63 0 -182 -47l-23 106q121 53 240 53q147 0 196 -80.5t27 -238.5l-53 -377h-95l-10 76h-8q-66 -92 -223 -92q-92 0 -148.5 53t-56.5 137zM301 748q0 -49 33 -78t94 -29 q66 0 118 35t62 82l2 10q8 53 -30.5 84t-108.5 31q-80 0 -125 -37t-45 -98z" />
<glyph unicode="&#xab;" horiz-adv-x="884" d="M129 403l6 48l287 385h141l-4 -21l-278 -381l-2 -12l172 -385l-5 -21h-141zM498 403l6 48l287 385h141l-4 -21l-279 -381l-2 -12l172 -385l-4 -21h-141z" />
<glyph unicode="&#xac;" horiz-adv-x="1019" d="M164 569l20 140h820l-101 -709h-139l80 569h-680z" />
<glyph unicode="&#xad;" horiz-adv-x="733" d="M160 399l20 140h525l-21 -140h-524z" />
<glyph unicode="&#xae;" horiz-adv-x="1013" d="M188 709q0 223 138.5 384.5t355.5 161.5q170 0 266 -115.5t96 -291.5q0 -223 -141 -385t-356 -162q-168 0 -263.5 115.5t-95.5 292.5zM276 719q0 -143 77 -236.5t206 -93.5q168 0 281.5 131.5t113.5 317.5q0 145 -76.5 237t-207.5 92q-168 0 -281 -128t-113 -320z M428 580l59 413h175q66 0 103.5 -33.5t37.5 -93.5q0 -100 -94 -145v-2l59 -119l-4 -20h-82l-57 120h-101l-18 -120h-78zM535 776h94q39 0 63.5 21.5t24.5 60.5q0 57 -70 57h-94z" />
<glyph unicode="&#xaf;" horiz-adv-x="991" d="M418 1368l14 109h563l-14 -109h-563z" />
<glyph unicode="&#xb0;" horiz-adv-x="548" d="M223 1126q0 102 71 176t173 74q84 0 134 -54t50 -136q0 -104 -70.5 -177t-174.5 -73q-84 0 -133.5 53t-49.5 137zM322 1137q0 -47 26.5 -78t71.5 -31q55 0 94 43t39 105q0 47 -26.5 78.5t-71.5 31.5q-57 0 -95 -44t-38 -105z" />
<glyph unicode="&#xb1;" horiz-adv-x="968" d="M119 74l20 139h752l-21 -139h-751zM207 696l18 138h310l49 352h139l-49 -352h303l-19 -138h-303l-49 -342h-139l49 342h-309z" />
<glyph unicode="&#xb2;" horiz-adv-x="636" d="M193 700l14 99l289 245q78 66 77 144q0 90 -92 90q-88 0 -162 -74l-49 90q10 10 29.5 25.5t80 41t120.5 25.5q100 0 148 -50t48 -132q0 -76 -26.5 -125t-83.5 -96l-213 -180h280l-14 -103h-446z" />
<glyph unicode="&#xb3;" horiz-adv-x="616" d="M180 776l76 86q4 -6 18.5 -21.5t51 -34t80.5 -18.5q70 0 108.5 40t38.5 98q0 92 -100 92h-72l8 69l150 179h-267l15 102h422l-13 -78l-157 -186q133 -25 133 -164q0 -109 -73 -182.5t-206 -73.5q-121 0 -213 92z" />
<glyph unicode="&#xb4;" horiz-adv-x="530" d="M248 1018l137 297l195 -27l-215 -270h-117z" />
<glyph unicode="&#xb5;" horiz-adv-x="948" d="M72 -262l108 770h158l-100 -770h-166zM156 350l71 510h168l-71 -500q-33 -240 155 -239q94 0 156.5 59.5t77.5 138.5l78 541h165l-120 -860h-109l-12 121h-6q-115 -141 -287 -141q-152 0 -221.5 97t-44.5 273z" />
<glyph unicode="&#xb6;" horiz-adv-x="997" d="M156 678q0 262 171 407.5t439 145.5h276l-196 -1399h-168l59 418h-104q-215 0 -346 111.5t-131 316.5z" />
<glyph unicode="&#xb7;" horiz-adv-x="399" d="M195 723q0 49 37.5 88t84.5 39q43 0 70 -28.5t27 -71.5q0 -51 -38 -89t-89 -38q-39 0 -65.5 29.5t-26.5 70.5z" />
<glyph unicode="&#xb8;" horiz-adv-x="385" d="M-2 -281l51 64q2 0 10.5 -7t18.5 -14.5t27.5 -13.5t37.5 -6q37 0 58.5 20.5t21.5 55.5q0 51 -63 51l-39 -4l-25 37l62 104h86l-37 -69q43 -2 71.5 -31t28.5 -80q0 -72 -46 -119t-126 -47q-43 0 -77.5 14.5t-47.5 30.5z" />
<glyph unicode="&#xb9;" horiz-adv-x="395" d="M223 1266l15 102h237l-94 -668h-115l80 566h-123z" />
<glyph unicode="&#xba;" horiz-adv-x="751" d="M188 846q0 180 105.5 294.5t257.5 114.5q119 0 191.5 -80.5t72.5 -218.5q0 -178 -105.5 -291.5t-258.5 -113.5q-117 0 -190 81t-73 214zM319 858q0 -88 39 -140t109 -52q96 0 156.5 78.5t60.5 203.5q0 88 -38.5 140.5t-110.5 52.5q-92 0 -154 -80t-62 -203z" />
<glyph unicode="&#xbb;" horiz-adv-x="882" d="M74 16l2 21l280 385l2 12l-172 381l2 21h144l178 -385l-6 -48l-287 -387h-143zM440 16l2 21l283 385l2 12l-174 381l2 21h143l179 -385l-7 -48l-286 -387h-144z" />
<glyph unicode="&#xbc;" horiz-adv-x="1179" d="M57 0l1043 1229h143l-1046 -1229h-140zM238 1126l14 103h240l-93 -668h-116l77 565h-122zM612 172l11 74l389 422h88l-56 -398h109l-14 -98h-109l-24 -172h-111l25 172h-308zM760 264l76 6h98l22 172l9 56h-2l-140 -168z" />
<glyph unicode="&#xbd;" horiz-adv-x="1288" d="M57 0l1043 1229h143l-1046 -1229h-140zM244 1126l14 103h238l-93 -668h-114l78 565h-123zM774 0h445l14 102h-281l213 181q59 47 86 95t27 126q0 82 -49 132t-150 50q-59 0 -115.5 -23.5t-82.5 -46.5l-29 -22l49 -90q74 74 160 74q92 0 92 -91q0 -78 -78 -143l-287 -246z " />
<glyph unicode="&#xbe;" horiz-adv-x="1316" d="M154 637l75 86q4 -6 18.5 -21.5t51.5 -34t80 -18.5q70 0 108.5 40t38.5 97q0 92 -100 93h-72l8 69l150 178h-266l14 103h422l-12 -78l-158 -186q133 -25 133 -164q0 -109 -72.5 -182.5t-205.5 -73.5q-121 0 -213 92zM213 0l1044 1229h142l-1047 -1229h-139zM754 170 l10 74l389 422h88l-55 -398h106l-14 -98h-107l-24 -170h-113l25 170h-305zM901 262l76 6h96l25 172l6 56l-139 -170z" />
<glyph unicode="&#xbf;" horiz-adv-x="782" d="M47 -102q0 92 35 164.5t86 119.5t104.5 87t98.5 89.5t57 104.5l12 53h121l-10 -78q-8 -66 -44 -122t-82 -97t-90 -82t-74 -92t-30 -108q0 -72 47.5 -116t129.5 -44q57 0 116.5 21.5t89.5 43.5l29 23l55 -137q-14 -12 -40.5 -31t-110.5 -50.5t-170 -31.5q-152 0 -241 76 t-89 207zM424 762q0 51 38 89t87 38q39 0 65.5 -30t26.5 -71q0 -51 -37 -87.5t-86 -36.5q-39 0 -66.5 28.5t-27.5 69.5z" />
<glyph unicode="&#xc0;" horiz-adv-x="1116" d="M6 0l643 1229h162l299 -1229h-176l-62 264h-557l-133 -264h-176zM391 414h449l-138 610zM549 1573l201 31l47 -304h-119z" />
<glyph unicode="&#xc1;" horiz-adv-x="1116" d="M6 0l643 1229h162l299 -1229h-176l-62 264h-557l-133 -264h-176zM391 414h449l-138 610zM686 1300l137 297l195 -26l-215 -271h-117z" />
<glyph unicode="&#xc2;" horiz-adv-x="1116" d="M6 0l643 1229h162l299 -1229h-176l-62 264h-557l-133 -264h-176zM391 414h449l-138 610zM514 1356l201 233h133l137 -233h-141l-76 127l-115 -127h-139z" />
<glyph unicode="&#xc3;" horiz-adv-x="1116" d="M6 0l643 1229h162l299 -1229h-176l-62 264h-557l-133 -264h-176zM391 414h449l-138 610zM426 1368l18 57q57 176 201 177q61 0 138 -57.5t112 -57.5q63 0 94 86l10 31l117 -13l-16 -55q-23 -78 -74 -128t-127 -50q-63 0 -141 56t-113 56q-59 0 -90 -81l-12 -33z" />
<glyph unicode="&#xc4;" horiz-adv-x="1116" d="M6 0l643 1229h162l299 -1229h-176l-62 264h-557l-133 -264h-176zM391 414h449l-138 610zM506 1448q0 45 34.5 80t75.5 35q35 0 60.5 -27t25.5 -66q0 -43 -35.5 -78.5t-78.5 -35.5q-33 0 -57.5 27.5t-24.5 64.5zM823 1448q0 45 34 80t77 35q35 0 60.5 -27t25.5 -66 q0 -43 -36 -78.5t-79 -35.5q-35 0 -58.5 27.5t-23.5 64.5z" />
<glyph unicode="&#xc5;" horiz-adv-x="1116" d="M6 0l643 1229h162l299 -1229h-176l-62 264h-557l-133 -264h-176zM391 414h449l-138 610zM559 1440q10 80 72.5 130t154.5 50q88 0 137.5 -50t39.5 -130q-12 -80 -76 -130t-152 -50q-92 0 -140 50t-36 130zM662 1440q-6 -41 17 -62.5t71 -21.5q98 0 110 84 q4 41 -18.5 62.5t-67.5 21.5q-102 0 -112 -84z" />
<glyph unicode="&#xc6;" horiz-adv-x="1650" d="M-16 0l938 1229h827l-20 -154h-635l-54 -379h535l-23 -151h-534l-53 -391h634l-22 -154h-803l37 266h-428l-193 -266h-206zM496 418h338l77 555h-12z" />
<glyph unicode="&#xc7;" horiz-adv-x="1046" d="M147 518q0 305 190.5 521t471.5 216q72 0 134.5 -16t100 -38.5t66.5 -45t41 -39.5l10 -16l-114 -131q-4 6 -10.5 14t-31 29.5t-52 39t-71.5 31t-94 13.5q-190 0 -327 -165t-137 -390q0 -176 90 -293t239 -117q76 0 150 32t110 62l35 33l78 -131q-6 -6 -17.5 -16.5 t-49 -38t-80.5 -48t-111 -37t-139 -16.5q-221 0 -351.5 155t-130.5 392zM408 -281l51 64q2 0 10 -7t18.5 -14.5t27.5 -13.5t38 -6q37 0 58.5 20.5t21.5 55.5q0 51 -64 51l-39 -4l-24 37l61 104h86l-37 -69q43 -2 72 -31t29 -80q0 -72 -46 -119t-126 -47q-43 0 -78 14.5 t-47 30.5z" />
<glyph unicode="&#xc8;" horiz-adv-x="1013" d="M143 0l172 1229h797l-20 -154h-629l-53 -379h534l-20 -149h-535l-55 -393h629l-23 -154h-797zM557 1573l201 31l47 -304h-119z" />
<glyph unicode="&#xc9;" horiz-adv-x="1013" d="M143 0l172 1229h797l-20 -154h-629l-53 -379h534l-20 -149h-535l-55 -393h629l-23 -154h-797zM668 1300l137 297l194 -26l-215 -271h-116z" />
<glyph unicode="&#xca;" horiz-adv-x="1013" d="M143 0l172 1229h797l-20 -154h-629l-53 -379h534l-20 -149h-535l-55 -393h629l-23 -154h-797zM512 1356l201 233h133l137 -233h-141l-76 127l-115 -127h-139z" />
<glyph unicode="&#xcb;" horiz-adv-x="1013" d="M143 0l172 1229h797l-20 -154h-629l-53 -379h534l-20 -149h-535l-55 -393h629l-23 -154h-797zM498 1448q0 45 34.5 80t75.5 35q35 0 60.5 -27t25.5 -66q0 -43 -35.5 -78.5t-78.5 -35.5q-33 0 -57.5 27.5t-24.5 64.5zM815 1448q0 45 34 80t77 35q35 0 60.5 -27t25.5 -66 q0 -43 -36 -78.5t-79 -35.5q-35 0 -58.5 27.5t-23.5 64.5z" />
<glyph unicode="&#xcc;" horiz-adv-x="454" d="M143 0l172 1229h168l-172 -1229h-168zM215 1573l201 31l47 -304h-119z" />
<glyph unicode="&#xcd;" horiz-adv-x="454" d="M143 0l172 1229h168l-172 -1229h-168zM354 1300l138 297l194 -26l-215 -271h-117z" />
<glyph unicode="&#xce;" horiz-adv-x="454" d="M143 0l172 1229h168l-172 -1229h-168zM184 1356l201 233h133l137 -233h-141l-76 127l-114 -127h-140z" />
<glyph unicode="&#xcf;" horiz-adv-x="454" d="M143 0l172 1229h168l-172 -1229h-168zM176 1448q0 45 35 80t76 35q35 0 60.5 -27t25.5 -66q0 -43 -36 -78.5t-79 -35.5q-33 0 -57.5 27.5t-24.5 64.5zM494 1448q0 45 33.5 80t76.5 35q35 0 60.5 -27t25.5 -66q0 -43 -36 -78.5t-79 -35.5q-35 0 -58 27.5t-23 64.5z" />
<glyph unicode="&#xd0;" horiz-adv-x="1181" d="M115 545l22 153h578l-23 -153h-577zM143 0l172 1229h392q229 0 361 -140t132 -378q0 -315 -186.5 -513t-478.5 -198h-392zM334 154h213q203 0 341 146t138 388q0 180 -96 283.5t-254 103.5h-213z" />
<glyph unicode="&#xd1;" horiz-adv-x="1243" d="M143 0l172 1227v2h123l539 -912l127 912h168l-172 -1229h-121l-539 913l-129 -913h-168zM489 1368l19 57q57 176 201 177q61 0 138 -57.5t111 -57.5q63 0 95 86l10 31l117 -13l-17 -55q-23 -78 -73.5 -128t-126.5 -50q-66 0 -144 56t-110 56q-59 0 -91 -81l-12 -33z" />
<glyph unicode="&#xd2;" horiz-adv-x="1261" d="M150 518q0 305 188 521t467 216q221 0 350 -153.5t129 -392.5q0 -305 -188 -521.5t-471 -216.5q-219 0 -347 155t-128 392zM326 537q0 -176 87 -290t234 -114q197 0 330 164t133 391q0 178 -88 293t-240 115q-193 0 -324.5 -165t-131.5 -394zM635 1628l201 31l47 -303 h-119z" />
<glyph unicode="&#xd3;" horiz-adv-x="1261" d="M150 518q0 305 188 521t467 216q221 0 350 -153.5t129 -392.5q0 -305 -188 -521.5t-471 -216.5q-219 0 -347 155t-128 392zM326 537q0 -176 87 -290t234 -114q197 0 330 164t133 391q0 178 -88 293t-240 115q-193 0 -324.5 -165t-131.5 -394zM756 1356l137 297l194 -27 l-215 -270h-116z" />
<glyph unicode="&#xd4;" horiz-adv-x="1261" d="M150 518q0 305 188 521t467 216q221 0 350 -153.5t129 -392.5q0 -305 -188 -521.5t-471 -216.5q-219 0 -347 155t-128 392zM326 537q0 -176 87 -290t234 -114q197 0 330 164t133 391q0 178 -88 293t-240 115q-193 0 -324.5 -165t-131.5 -394zM588 1356l200 233h134 l137 -233h-141l-76 127l-115 -127h-139z" />
<glyph unicode="&#xd5;" horiz-adv-x="1261" d="M150 518q0 305 188 521t467 216q221 0 350 -153.5t129 -392.5q0 -305 -188 -521.5t-471 -216.5q-219 0 -347 155t-128 392zM326 537q0 -176 87 -290t234 -114q197 0 330 164t133 391q0 178 -88 293t-240 115q-193 0 -324.5 -165t-131.5 -394zM492 1368l18 57 q57 176 201 177q61 0 138 -57.5t112 -57.5q63 0 94 86l10 31l117 -13l-17 -55q-23 -78 -73.5 -128t-126.5 -50q-66 0 -143 56t-111 56q-59 0 -90 -81l-13 -33z" />
<glyph unicode="&#xd6;" horiz-adv-x="1261" d="M150 518q0 305 188 521t467 216q221 0 350 -153.5t129 -392.5q0 -305 -188 -521.5t-471 -216.5q-219 0 -347 155t-128 392zM326 537q0 -176 87 -290t234 -114q197 0 330 164t133 391q0 178 -88 293t-240 115q-193 0 -324.5 -165t-131.5 -394zM580 1448q0 45 34.5 80 t75.5 35q35 0 60.5 -27t25.5 -66q0 -43 -35.5 -78.5t-78.5 -35.5q-33 0 -57.5 27.5t-24.5 64.5zM897 1448q0 45 34 80t77 35q35 0 60.5 -27t25.5 -66q0 -43 -36 -78.5t-79 -35.5q-35 0 -58.5 27.5t-23.5 64.5z" />
<glyph unicode="&#xd7;" horiz-adv-x="929" d="M141 299l322 315l-234 316l111 96l227 -309l316 309l82 -96l-322 -316l234 -315l-111 -96l-227 309l-316 -309z" />
<glyph unicode="&#xd8;" horiz-adv-x="1275" d="M-2 0l1266 1229h178l-1264 -1229h-180zM158 518q0 305 188.5 521t466.5 216q221 0 350 -153.5t129 -392.5q0 -305 -188 -521.5t-471 -216.5q-219 0 -347 155t-128 392zM334 537q0 -176 87 -290t234 -114q197 0 330 164t133 391q0 178 -88 293t-239 115q-193 0 -325 -165 t-132 -394z" />
<glyph unicode="&#xd9;" horiz-adv-x="1181" d="M201 516l100 713h168l-100 -713q-25 -172 36.5 -277.5t202.5 -105.5q143 0 233.5 105.5t114.5 277.5l101 713h168l-101 -713q-35 -246 -178 -395.5t-360 -149.5q-213 0 -316.5 150.5t-68.5 394.5zM584 1573l200 31l47 -304h-118z" />
<glyph unicode="&#xda;" horiz-adv-x="1181" d="M201 516l100 713h168l-100 -713q-25 -172 36.5 -277.5t202.5 -105.5q143 0 233.5 105.5t114.5 277.5l101 713h168l-101 -713q-35 -246 -178 -395.5t-360 -149.5q-213 0 -316.5 150.5t-68.5 394.5zM709 1300l137 297l194 -26l-215 -271h-116z" />
<glyph unicode="&#xdb;" horiz-adv-x="1181" d="M201 516l100 713h168l-100 -713q-25 -172 36.5 -277.5t202.5 -105.5q143 0 233.5 105.5t114.5 277.5l101 713h168l-101 -713q-35 -246 -178 -395.5t-360 -149.5q-213 0 -316.5 150.5t-68.5 394.5zM541 1298l200 234h133l138 -234h-142l-75 127l-115 -127h-139z" />
<glyph unicode="&#xdc;" horiz-adv-x="1181" d="M201 516l100 713h168l-100 -713q-25 -172 36.5 -277.5t202.5 -105.5q143 0 233.5 105.5t114.5 277.5l101 713h168l-101 -713q-35 -246 -178 -395.5t-360 -149.5q-213 0 -316.5 150.5t-68.5 394.5zM541 1448q0 45 34.5 80t75.5 35q35 0 60.5 -27t25.5 -66 q0 -43 -35.5 -78.5t-78.5 -35.5q-33 0 -57.5 27.5t-24.5 64.5zM858 1448q0 45 34 80t77 35q35 0 60.5 -27t25.5 -66q0 -43 -36 -78.5t-79 -35.5q-35 0 -58.5 27.5t-23.5 64.5z" />
<glyph unicode="&#xdd;" horiz-adv-x="993" d="M176 1229h195l188 -520l25 -86h4l49 86l332 520h192l-514 -752l-65 -477h-170l65 477zM629 1368l137 297l195 -27l-216 -270h-116z" />
<glyph unicode="&#xde;" horiz-adv-x="1081" d="M143 0l172 1229h168l-26 -197h293q178 0 277 -91t99 -257q0 -233 -140 -363.5t-368 -130.5h-280l-27 -190h-168zM360 344h283q145 0 226 77.5t81 235.5q0 109 -61.5 164.5t-171.5 55.5h-283z" />
<glyph unicode="&#xdf;" horiz-adv-x="940" d="M117 0l123 877q23 176 124 271t275 95q160 0 238.5 -94t56.5 -246q-12 -86 -55 -154.5t-107 -103.5q88 -29 125 -114t23 -191q-23 -166 -134.5 -262t-285.5 -96q-39 0 -71 4t-44 10l-12 4l30 123q37 -10 99 -10q98 0 165.5 61.5t82.5 159.5q14 106 -35 165.5t-148 59.5 h-45l17 121q193 33 219 225q10 86 -28 139.5t-116 53.5q-82 0 -138 -53.5t-68 -143.5l-125 -901h-166z" />
<glyph unicode="&#xe0;" horiz-adv-x="862" d="M86 219q0 139 107.5 227.5t295.5 88.5q90 0 177 -29l4 26q33 205 -176 205q-53 0 -109.5 -16t-85.5 -33l-29 -18l-43 133q125 78 308 78q339 -1 292 -351l-73 -530h-115l-4 117h-4q-100 -137 -281 -137q-125 0 -194.5 67.5t-69.5 171.5zM252 240q0 -59 38 -96.5 t107 -37.5q90 0 160 64t82 152l8 63q-59 37 -158 37q-117 0 -177 -49t-60 -133zM387 1290l201 31l47 -303h-119z" />
<glyph unicode="&#xe1;" horiz-adv-x="862" d="M86 219q0 139 107.5 227.5t295.5 88.5q90 0 177 -29l4 26q33 205 -176 205q-53 0 -109.5 -16t-85.5 -33l-29 -18l-43 133q125 78 308 78q339 -1 292 -351l-73 -530h-115l-4 117h-4q-100 -137 -281 -137q-125 0 -194.5 67.5t-69.5 171.5zM252 240q0 -59 38 -96.5 t107 -37.5q90 0 160 64t82 152l8 63q-59 37 -158 37q-117 0 -177 -49t-60 -133zM520 1018l137 297l195 -27l-215 -270h-117z" />
<glyph unicode="&#xe2;" horiz-adv-x="862" d="M86 219q0 139 107.5 227.5t295.5 88.5q90 0 177 -29l4 26q33 205 -176 205q-53 0 -109.5 -16t-85.5 -33l-29 -18l-43 133q125 78 308 78q339 -1 292 -351l-73 -530h-115l-4 117h-4q-100 -137 -281 -137q-125 0 -194.5 67.5t-69.5 171.5zM252 240q0 -59 38 -96.5 t107 -37.5q90 0 160 64t82 152l8 63q-59 37 -158 37q-117 0 -177 -49t-60 -133zM326 1018l200 233h133l138 -233h-142l-75 127l-115 -127h-139z" />
<glyph unicode="&#xe3;" horiz-adv-x="862" d="M86 219q0 139 107.5 227.5t295.5 88.5q90 0 177 -29l4 26q33 205 -176 205q-53 0 -109.5 -16t-85.5 -33l-29 -18l-43 133q125 78 308 78q339 -1 292 -351l-73 -530h-115l-4 117h-4q-100 -137 -281 -137q-125 0 -194.5 67.5t-69.5 171.5zM229 1022l19 57q57 176 201 176 q61 0 138 -57t111 -57q63 0 95 86l10 30l117 -12l-17 -55q-23 -78 -74 -128t-127 -50q-63 0 -141 56t-112 56q-59 0 -91 -82l-12 -32zM252 240q0 -59 38 -96.5t107 -37.5q90 0 160 64t82 152l8 63q-59 37 -158 37q-117 0 -177 -49t-60 -133z" />
<glyph unicode="&#xe4;" horiz-adv-x="862" d="M86 219q0 139 107.5 227.5t295.5 88.5q90 0 177 -29l4 26q33 205 -176 205q-53 0 -109.5 -16t-85.5 -33l-29 -18l-43 133q125 78 308 78q339 -1 292 -351l-73 -530h-115l-4 117h-4q-100 -137 -281 -137q-125 0 -194.5 67.5t-69.5 171.5zM252 240q0 -59 38 -96.5 t107 -37.5q90 0 160 64t82 152l8 63q-59 37 -158 37q-117 0 -177 -49t-60 -133zM319 1098q0 45 35 79.5t76 34.5q35 0 60.5 -26.5t25.5 -65.5q0 -43 -36 -78.5t-79 -35.5q-33 0 -57.5 27.5t-24.5 64.5zM637 1098q0 45 34 79.5t77 34.5q35 0 60.5 -26.5t25.5 -65.5 q0 -43 -36 -78.5t-79 -35.5q-35 0 -58.5 27.5t-23.5 64.5z" />
<glyph unicode="&#xe5;" horiz-adv-x="862" d="M86 219q0 139 107.5 227.5t295.5 88.5q90 0 177 -29l4 26q33 205 -176 205q-53 0 -109.5 -16t-85.5 -33l-29 -18l-43 133q125 78 308 78q339 -1 292 -351l-73 -530h-115l-4 117h-4q-100 -137 -281 -137q-125 0 -194.5 67.5t-69.5 171.5zM252 240q0 -59 38 -96.5 t107 -37.5q90 0 160 64t82 152l8 63q-59 37 -158 37q-117 0 -177 -49t-60 -133zM387 1196q10 80 72.5 130t154.5 50q88 0 137.5 -50t39.5 -130q-12 -80 -76 -130t-152 -50q-92 0 -140 50t-36 130zM489 1196q-6 -41 17.5 -62.5t71.5 -21.5q98 0 110 84q4 41 -18.5 62.5 t-67.5 21.5q-102 0 -113 -84z" />
<glyph unicode="&#xe6;" horiz-adv-x="1378" d="M84 217q0 141 101.5 228t295.5 87q96 0 185 -30l4 28q14 104 -32 156.5t-144 52.5q-53 0 -109.5 -17t-85.5 -34l-31 -18l-43 133q131 78 303 78q201 0 273 -129q123 129 293 129q166 0 240.5 -120t47.5 -308l-6 -43h-561q-14 -143 42 -218t167 -75q59 0 115.5 19.5 t83.5 39.5l26 21l45 -117q-10 -12 -32.5 -28.5t-99.5 -45.5t-167 -29q-209 0 -295 148q-121 -145 -331 -145q-141 0 -213 65.5t-72 171.5zM252 233q0 -57 35.5 -92t107.5 -35q102 0 167 62.5t79 157.5l8 55q-70 37 -170 37q-227 0 -227 -185zM840 532h389q6 211 -158 211 q-170 0 -231 -211z" />
<glyph unicode="&#xe7;" horiz-adv-x="761" d="M121 356q0 225 133 375t334 150q78 0 135 -18.5t76 -39.5l18 -18l-65 -125q-61 61 -172 61q-121 0 -205 -101t-84 -269q0 -119 55 -185.5t146 -66.5q49 0 96 15.5t71 29.5l23 16l29 -123q-8 -8 -25.5 -21t-82 -34.5t-142.5 -21.5q-158 0 -249 103t-91 273zM254 -293 l51 64q2 0 10.5 -7.5t18.5 -14.5t27.5 -13t37.5 -6q37 0 58.5 20.5t21.5 54.5q0 51 -63 52l-39 -4l-25 36l62 105h86l-37 -70q43 -2 71.5 -30.5t28.5 -79.5q0 -72 -46 -119t-126 -47q-43 0 -77.5 14t-47.5 31z" />
<glyph unicode="&#xe8;" horiz-adv-x="854" d="M121 354q0 221 126 374t318 153q168 0 244 -120t49 -308l-6 -43h-563q-16 -143 42 -218t169 -75q59 0 115.5 19.5t80.5 39.5l27 19l43 -117q-10 -10 -31.5 -27.5t-98.5 -45.5t-167 -28q-164 0 -256 103.5t-92 273.5zM311 532h391q4 102 -36.5 156.5t-120.5 54.5 q-170 0 -234 -211zM391 1290l201 31l47 -303h-119z" />
<glyph unicode="&#xe9;" horiz-adv-x="854" d="M121 354q0 221 126 374t318 153q168 0 244 -120t49 -308l-6 -43h-563q-16 -143 42 -218t169 -75q59 0 115.5 19.5t80.5 39.5l27 19l43 -117q-10 -10 -31.5 -27.5t-98.5 -45.5t-167 -28q-164 0 -256 103.5t-92 273.5zM311 532h391q4 102 -36.5 156.5t-120.5 54.5 q-170 0 -234 -211zM528 1018l138 297l194 -27l-215 -270h-117z" />
<glyph unicode="&#xea;" horiz-adv-x="854" d="M121 354q0 221 126 374t318 153q168 0 244 -120t49 -308l-6 -43h-563q-16 -143 42 -218t169 -75q59 0 115.5 19.5t80.5 39.5l27 19l43 -117q-10 -10 -31.5 -27.5t-98.5 -45.5t-167 -28q-164 0 -256 103.5t-92 273.5zM311 532h391q4 102 -36.5 156.5t-120.5 54.5 q-170 0 -234 -211zM350 1016l201 233h133l137 -233h-141l-76 127l-115 -127h-139z" />
<glyph unicode="&#xeb;" horiz-adv-x="854" d="M121 354q0 221 126 374t318 153q168 0 244 -120t49 -308l-6 -43h-563q-16 -143 42 -218t169 -75q59 0 115.5 19.5t80.5 39.5l27 19l43 -117q-10 -10 -31.5 -27.5t-98.5 -45.5t-167 -28q-164 0 -256 103.5t-92 273.5zM311 532h391q4 102 -36.5 156.5t-120.5 54.5 q-170 0 -234 -211zM344 1098q0 45 35 79.5t76 34.5q35 0 60.5 -26.5t25.5 -65.5q0 -43 -36 -78.5t-79 -35.5q-33 0 -57.5 27.5t-24.5 64.5zM662 1098q0 45 33.5 79.5t76.5 34.5q35 0 60.5 -26.5t25.5 -65.5q0 -43 -36 -78.5t-79 -35.5q-35 0 -58 27.5t-23 64.5z" />
<glyph unicode="&#xec;" horiz-adv-x="405" d="M119 0l121 860h168l-121 -860h-168zM150 1290l200 31l47 -303h-118z" />
<glyph unicode="&#xed;" horiz-adv-x="405" d="M119 0l121 860h168l-121 -860h-168zM289 1018l137 297l195 -27l-215 -270h-117z" />
<glyph unicode="&#xee;" horiz-adv-x="405" d="M119 0l121 860h168l-121 -860h-168zM121 1073l201 234h133l137 -234h-141l-76 127l-115 -127h-139z" />
<glyph unicode="&#xef;" horiz-adv-x="405" d="M115 1163q0 45 34.5 80t75.5 35q35 0 60.5 -26.5t25.5 -65.5q0 -43 -35.5 -79t-78.5 -36q-33 0 -57.5 27.5t-24.5 64.5zM119 0l121 860h168l-121 -860h-168zM432 1163q0 45 34 80t77 35q35 0 60.5 -26.5t25.5 -65.5q0 -43 -36 -79t-79 -36q-35 0 -58.5 27.5t-23.5 64.5z " />
<glyph unicode="&#xf0;" horiz-adv-x="940" d="M127 430q29 203 154 327t311 124q37 0 74 -7v5q-20 35 -41 77l-211 512l4 23h157l304 -696q78 -176 51 -365q-29 -207 -153 -328.5t-312.5 -121.5t-277.5 121.5t-60 328.5zM295 430q-20 -145 34 -228t156 -83q104 0 180.5 83t96.5 228q20 147 -33 229t-158 82 q-102 0 -179 -81.5t-97 -229.5zM297 1047l618 372l41 -96l-618 -375z" />
<glyph unicode="&#xf1;" horiz-adv-x="956" d="M117 0l121 860h112l-2 -125h12q117 145 287 146q152 0 224.5 -107.5t48.5 -284.5l-70 -489h-168l66 471q16 119 -25 193.5t-133 74.5t-154.5 -68.5t-79.5 -150.5l-73 -520h-166zM297 1085l18 58q57 176 201 176q61 0 138 -57.5t112 -57.5q63 0 94 86l10 31l117 -12 l-16 -56q-23 -78 -74 -128t-127 -50q-66 0 -143.5 56.5t-110.5 56.5q-59 0 -90 -82l-12 -33z" />
<glyph unicode="&#xf2;" d="M119 358q0 225 139 374t330 149q152 0 249 -107.5t97 -281.5q0 -225 -141.5 -368.5t-331.5 -143.5q-152 0 -247 103t-95 275zM285 373q0 -119 55 -188.5t141 -69.5q117 0 201 102t84 266q0 119 -55.5 190.5t-141.5 71.5q-115 0 -199.5 -105t-84.5 -267zM418 1290l200 31 l48 -303h-119z" />
<glyph unicode="&#xf3;" d="M119 358q0 225 139 374t330 149q152 0 249 -107.5t97 -281.5q0 -225 -141.5 -368.5t-331.5 -143.5q-152 0 -247 103t-95 275zM285 373q0 -119 55 -188.5t141 -69.5q117 0 201 102t84 266q0 119 -55.5 190.5t-141.5 71.5q-115 0 -199.5 -105t-84.5 -267zM547 1018l137 297 l195 -27l-215 -270h-117z" />
<glyph unicode="&#xf4;" d="M119 358q0 225 139 374t330 149q152 0 249 -107.5t97 -281.5q0 -225 -141.5 -368.5t-331.5 -143.5q-152 0 -247 103t-95 275zM285 373q0 -119 55 -188.5t141 -69.5q117 0 201 102t84 266q0 119 -55.5 190.5t-141.5 71.5q-115 0 -199.5 -105t-84.5 -267zM383 1073l201 234 h133l137 -234h-141l-76 127l-115 -127h-139z" />
<glyph unicode="&#xf5;" d="M119 358q0 225 139 374t330 149q152 0 249 -107.5t97 -281.5q0 -225 -141.5 -368.5t-331.5 -143.5q-152 0 -247 103t-95 275zM281 1087l18 58q57 176 201 176q61 0 138 -57.5t112 -57.5q63 0 94 86l10 31l117 -12l-17 -56q-23 -78 -73.5 -128t-126.5 -50q-66 0 -144 56.5 t-110 56.5q-59 0 -90 -82l-13 -33zM285 373q0 -119 55 -188.5t141 -69.5q117 0 201 102t84 266q0 119 -55.5 190.5t-141.5 71.5q-115 0 -199.5 -105t-84.5 -267z" />
<glyph unicode="&#xf6;" d="M119 358q0 225 139 374t330 149q152 0 249 -107.5t97 -281.5q0 -225 -141.5 -368.5t-331.5 -143.5q-152 0 -247 103t-95 275zM285 373q0 -119 55 -188.5t141 -69.5q117 0 201 102t84 266q0 119 -55.5 190.5t-141.5 71.5q-115 0 -199.5 -105t-84.5 -267zM375 1165 q0 45 34.5 80t75.5 35q35 0 60.5 -26.5t25.5 -65.5q0 -43 -35.5 -79t-78.5 -36q-33 0 -57.5 27.5t-24.5 64.5zM692 1165q0 45 34 80t77 35q35 0 60.5 -26.5t25.5 -65.5q0 -43 -36 -79t-79 -36q-35 0 -58.5 27.5t-23.5 64.5z" />
<glyph unicode="&#xf7;" horiz-adv-x="911" d="M174 537l21 139h714l-20 -139h-715zM387 276q0 53 38 91.5t89 38.5q39 0 66.5 -30t27.5 -71q0 -53 -39 -90t-88 -37q-43 0 -68.5 27.5t-25.5 70.5zM477 918q0 53 38 91t89 38q39 0 66.5 -30t27.5 -71q0 -53 -38.5 -90t-88.5 -37q-43 0 -68.5 28t-25.5 71z" />
<glyph unicode="&#xf8;" d="M37 0l201 190l28 25l477 508l27 25l113 112h123l-164 -155l-37 -33l-492 -520l-16 -19l-137 -133h-123zM119 358q0 225 139 374t330 149q152 0 249 -107.5t97 -281.5q0 -225 -141.5 -368.5t-331.5 -143.5q-152 0 -247 103t-95 275zM285 373q0 -119 55 -188.5t141 -69.5 q117 0 201 102t84 266q0 119 -55.5 190.5t-141.5 71.5q-115 0 -199.5 -105t-84.5 -267z" />
<glyph unicode="&#xf9;" horiz-adv-x="952" d="M156 350l71 510h168l-71 -500q-33 -240 155 -239q94 0 156.5 59.5t77.5 138.5l78 541h165l-120 -860h-109l-12 121h-6q-115 -141 -287 -141q-152 0 -221.5 97t-44.5 273zM424 1290l201 31l47 -303h-119z" />
<glyph unicode="&#xfa;" horiz-adv-x="952" d="M156 350l71 510h168l-71 -500q-33 -240 155 -239q94 0 156.5 59.5t77.5 138.5l78 541h165l-120 -860h-109l-12 121h-6q-115 -141 -287 -141q-152 0 -221.5 97t-44.5 273zM553 1018l137 297l195 -27l-215 -270h-117z" />
<glyph unicode="&#xfb;" horiz-adv-x="952" d="M156 350l71 510h168l-71 -500q-33 -240 155 -239q94 0 156.5 59.5t77.5 138.5l78 541h165l-120 -860h-109l-12 121h-6q-115 -141 -287 -141q-152 0 -221.5 97t-44.5 273zM373 1016l200 233h134l137 -233h-142l-75 127l-115 -127h-139z" />
<glyph unicode="&#xfc;" horiz-adv-x="952" d="M156 350l71 510h168l-71 -500q-33 -240 155 -239q94 0 156.5 59.5t77.5 138.5l78 541h165l-120 -860h-109l-12 121h-6q-115 -141 -287 -141q-152 0 -221.5 97t-44.5 273zM367 1108q0 45 34.5 80t75.5 35q35 0 60.5 -27t25.5 -66q0 -43 -35.5 -78.5t-78.5 -35.5 q-33 0 -57.5 27.5t-24.5 64.5zM684 1108q0 45 34 80t77 35q35 0 60.5 -27t25.5 -66q0 -43 -36 -78.5t-79 -35.5q-35 0 -58.5 27.5t-23.5 64.5z" />
<glyph unicode="&#xfd;" horiz-adv-x="851" d="M137 860h185l129 -604q8 -41 4 -59h10q8 31 20 59l297 604h172l-622 -1179h-174l200 368zM512 1018l137 297l195 -27l-215 -270h-117z" />
<glyph unicode="&#xfe;" horiz-adv-x="976" d="M72 -319l217 1548h166l-74 -527h6q4 8 11.5 19.5t32 42.5t54 54.5t78.5 43t105 19.5q139 0 224 -102.5t85 -272.5q0 -227 -129 -376.5t-305 -149.5q-55 0 -99.5 18t-68 45t-38.5 54.5t-20 45.5l-4 19h-8l-67 -481h-166zM330 375q0 -119 54 -187.5t142 -68.5 q115 0 197 105.5t82 258.5q0 115 -52.5 186.5t-138.5 71.5q-117 0 -200.5 -102t-83.5 -264z" />
<glyph unicode="&#xff;" horiz-adv-x="851" d="M137 860h185l129 -604q8 -41 4 -59h10q8 31 20 59l297 604h172l-622 -1179h-174l200 368zM328 1108q0 45 34.5 80t75.5 35q35 0 60.5 -27t25.5 -66q0 -43 -35.5 -78.5t-78.5 -35.5q-33 0 -57.5 27.5t-24.5 64.5zM645 1108q0 45 34 80t77 35q35 0 60.5 -27t25.5 -66 q0 -43 -36 -78.5t-79 -35.5q-35 0 -58.5 27.5t-23.5 64.5z" />
<glyph unicode="&#x152;" horiz-adv-x="1906" d="M150 518q0 305 188 521t467 216q221 0 350 -153.5t129 -392.5q0 -305 -188 -521.5t-471 -216.5q-219 0 -347 155t-128 392zM326 537q0 -176 87 -290t234 -114q197 0 330 164t133 391q0 178 -88 293t-240 115q-193 0 -324.5 -165t-131.5 -394zM1038 0l172 1229h797 l-20 -154h-629l-53 -379h534l-20 -149h-535l-55 -393h629l-23 -154h-797z" />
<glyph unicode="&#x153;" horiz-adv-x="1505" d="M119 358q0 225 139 374t330 149q152 0 249 -107.5t97 -281.5q0 -225 -141.5 -368.5t-331.5 -143.5q-152 0 -247 103t-95 275zM285 373q0 -119 55 -188.5t141 -69.5q117 0 201 102t84 266q0 119 -55.5 190.5t-141.5 71.5q-115 0 -199.5 -105t-84.5 -267zM776 354 q0 221 126 374t319 153q168 0 243.5 -120t48.5 -308l-6 -43h-563q-16 -143 42 -218t169 -75q59 0 115.5 19.5t81.5 39.5l26 19l43 -117q-10 -10 -31.5 -27.5t-98.5 -45.5t-167 -28q-164 0 -256 103.5t-92 273.5zM967 532h391q4 102 -37 156.5t-121 54.5q-170 0 -233 -211z " />
<glyph unicode="&#x178;" horiz-adv-x="993" d="M176 1229h195l188 -520l25 -86h4l49 86l332 520h192l-514 -752l-65 -477h-170l65 477zM449 1448q0 45 34.5 80t75.5 35q35 0 60.5 -27t25.5 -66q0 -43 -36 -78.5t-79 -35.5q-33 0 -57 27.5t-24 64.5zM766 1448q0 45 34 80t77 35q35 0 60.5 -27t25.5 -66q0 -43 -36 -78.5 t-79 -35.5q-35 0 -58.5 27.5t-23.5 64.5z" />
<glyph unicode="&#x2c6;" horiz-adv-x="704" d="M319 1356l201 233h133l138 -233h-142l-76 127l-114 -127h-140z" />
<glyph unicode="&#x2dc;" horiz-adv-x="921" d="M315 1368l19 57q57 176 201 177q61 0 138 -57.5t111 -57.5q63 0 95 86l10 31l117 -13l-17 -55q-23 -78 -74 -128t-127 -50q-63 0 -141 56t-112 56q-59 0 -91 -81l-12 -33z" />
<glyph unicode="&#x2000;" horiz-adv-x="832" />
<glyph unicode="&#x2001;" horiz-adv-x="1665" />
<glyph unicode="&#x2002;" horiz-adv-x="832" />
<glyph unicode="&#x2003;" horiz-adv-x="1665" />
<glyph unicode="&#x2004;" horiz-adv-x="555" />
<glyph unicode="&#x2005;" horiz-adv-x="416" />
<glyph unicode="&#x2006;" horiz-adv-x="277" />
<glyph unicode="&#x2007;" horiz-adv-x="277" />
<glyph unicode="&#x2008;" horiz-adv-x="208" />
<glyph unicode="&#x2009;" horiz-adv-x="333" />
<glyph unicode="&#x200a;" horiz-adv-x="92" />
<glyph unicode="&#x2010;" horiz-adv-x="733" d="M160 399l20 140h525l-21 -140h-524z" />
<glyph unicode="&#x2011;" horiz-adv-x="733" d="M160 399l20 140h525l-21 -140h-524z" />
<glyph unicode="&#x2012;" horiz-adv-x="733" d="M160 399l20 140h525l-21 -140h-524z" />
<glyph unicode="&#x2013;" horiz-adv-x="862" d="M184 520l21 139h631l-21 -139h-631z" />
<glyph unicode="&#x2014;" horiz-adv-x="1331" d="M184 520l21 139h1100l-21 -139h-1100z" />
<glyph unicode="&#x2018;" horiz-adv-x="407" d="M205 891l2 16q16 125 93 212t194 110l14 -94q-135 -31 -162 -140q31 -6 50.5 -31.5t19.5 -60.5q0 -49 -36 -84t-85 -35q-43 0 -69.5 31t-20.5 76z" />
<glyph unicode="&#x2019;" horiz-adv-x="413" d="M201 877q137 33 164 141q-31 6 -51.5 30.5t-20.5 59.5q0 49 37 85t84 36q43 0 69.5 -32t20.5 -77l-2 -14q-18 -127 -93 -213t-192 -109z" />
<glyph unicode="&#x201a;" horiz-adv-x="389" d="M6 -158q135 33 162 140q-31 6 -50.5 31.5t-19.5 58.5q0 51 36 86t85 35q43 0 69.5 -31t20.5 -76l-2 -16q-16 -125 -93 -212t-191 -110z" />
<glyph unicode="&#x201c;" horiz-adv-x="700" d="M205 891l2 16q16 125 93 212t194 110l14 -94q-133 -31 -162 -140q31 -6 50.5 -31.5t19.5 -60.5q0 -49 -36 -84t-85 -35q-43 0 -69.5 31t-20.5 76zM498 891l2 16q16 125 93 212t193 110l15 -94q-135 -31 -164 -140q33 -6 52.5 -31.5t19.5 -60.5q0 -49 -36 -84t-85 -35 q-43 0 -69.5 31t-20.5 76z" />
<glyph unicode="&#x201d;" horiz-adv-x="700" d="M201 877q135 33 161 141q-31 6 -51 30.5t-20 59.5q0 49 37 85t84 36q45 0 70.5 -32t19.5 -77l-2 -14q-18 -127 -93 -213t-192 -109zM487 877q135 33 162 141q-33 6 -51 30.5t-18 59.5q0 47 36.5 84t83.5 37q43 0 70 -32t21 -77l-3 -14q-18 -127 -94 -213t-192 -109z" />
<glyph unicode="&#x201e;" horiz-adv-x="702" d="M55 -160q63 16 106.5 53t53.5 89q-35 6 -54.5 34.5t-15.5 67.5q6 45 42 77t79 32t68.5 -32t19.5 -77l-2 -14q-16 -127 -92 -213t-192 -109zM342 -160q63 16 106.5 53t53.5 89q-35 8 -53.5 35.5t-14.5 66.5q6 45 41 77t80 32q43 0 68.5 -32t19.5 -77l-2 -14 q-16 -127 -93 -213t-194 -109z" />
<glyph unicode="&#x2022;" horiz-adv-x="593" d="M207 438q0 72 54 125t124 53q57 0 95 -40.5t38 -100.5q0 -72 -54 -124t-124 -52q-57 0 -95 40t-38 99z" />
<glyph unicode="&#x2026;" horiz-adv-x="1382" d="M111 90q0 57 42 100t99 43q47 0 77.5 -32.5t30.5 -79.5q0 -57 -43 -99t-100 -42q-47 0 -76.5 31.5t-29.5 78.5zM582 90q0 57 42 100t99 43q47 0 77.5 -32.5t30.5 -79.5q0 -57 -43 -99t-100 -42q-47 0 -76.5 31.5t-29.5 78.5zM1053 90q0 57 42 100t99 43q47 0 78 -32.5 t31 -79.5q0 -57 -43 -99t-101 -42q-47 0 -76.5 31.5t-29.5 78.5z" />
<glyph unicode="&#x202f;" horiz-adv-x="333" />
<glyph unicode="&#x2039;" horiz-adv-x="518" d="M129 403l6 48l287 385h141l-4 -21l-278 -381l-2 -12l172 -385l-5 -21h-141z" />
<glyph unicode="&#x203a;" horiz-adv-x="516" d="M74 16l2 21l280 385l2 12l-172 381l2 21h144l178 -385l-6 -48l-287 -387h-143z" />
<glyph unicode="&#x205f;" horiz-adv-x="416" />
<glyph unicode="&#x20ac;" horiz-adv-x="1056" d="M127 410l18 125h123q0 41 6 83q6 41 19 91h-123l16 125h142q70 190 203 305.5t317 115.5q59 0 111.5 -15t84 -36.5t55 -43t31.5 -38.5l11 -14l-105 -129q-2 4 -7 12t-24.5 28.5t-41 36t-57.5 28t-77 12.5q-225 0 -327 -262h356l-16 -125h-377q-12 -53 -16 -91 q-8 -57 -9 -83h377l-18 -125h-359q25 -279 254 -279q63 0 124 28.5t87 57.5l29 29l67 -123q-4 -6 -13 -16.5t-42 -36t-68.5 -45t-93 -36t-116.5 -16.5q-186 0 -286.5 120t-115.5 317h-139z" />
<glyph unicode="&#x2122;" horiz-adv-x="1329" d="M219 1128l14 101h461l-14 -101h-174l-78 -553h-113l78 553h-174zM707 575l92 654h78l165 -301l261 301h73l-92 -654h-110l61 433l-195 -228h-32l-127 226l-62 -431h-112z" />
<glyph unicode="&#x25fc;" horiz-adv-x="860" d="M0 0v860h860v-860h-860z" />
</font>
</defs>
</svg>
